# Blender 4.5.0
# www.blender.org
mtllib SM_Stove_visual1d01d01d0.mtl
o SM_Stove_visual1d01d01d0
v -0.002401 0.256000 0.397500
v -0.002401 -0.256000 0.397500
v -0.002401 -0.256611 0.397444
v -0.002401 0.257111 0.397278
v -0.002401 0.256611 0.397444
v -0.002401 -0.257111 0.397278
v -0.002401 -0.257500 0.397000
v -0.002401 0.257778 0.396611
v -0.002401 0.257500 0.397000
v -0.002401 -0.257944 0.396111
v -0.002401 -0.257778 0.396611
v -0.002401 0.258000 0.395500
v -0.002401 0.257944 0.396111
v -0.002401 0.258000 -0.395500
v -0.002401 0.257944 -0.396111
v -0.002401 -0.258000 0.395500
v -0.002401 -0.258000 -0.395500
v -0.002401 0.257500 -0.397000
v -0.002401 0.257778 -0.396611
v -0.002401 -0.256000 -0.397500
v -0.002401 -0.257778 -0.396611
v -0.002401 -0.257944 -0.396111
v -0.002401 0.256611 -0.397444
v -0.002401 0.257111 -0.397278
v -0.002401 0.256000 -0.397500
v -0.002401 -0.257111 -0.397278
v -0.002401 -0.257500 -0.397000
v -0.002401 -0.256611 -0.397444
v 0.002401 0.256611 -0.397444
v 0.002401 0.257111 -0.397278
v 0.002401 0.257500 -0.397000
v 0.002401 0.256000 -0.397500
v 0.002401 -0.256000 -0.397500
v 0.002401 0.257778 -0.396611
v 0.002401 0.257944 -0.396111
v 0.002401 0.258000 0.395500
v 0.002401 0.258000 -0.395500
v 0.002401 0.257944 0.396111
v 0.002401 0.257778 0.396611
v 0.002401 -0.257111 -0.397278
v 0.002401 -0.256611 -0.397444
v 0.002401 0.257111 0.397278
v 0.002401 0.257500 0.397000
v 0.002401 -0.257778 -0.396611
v 0.002401 -0.257500 -0.397000
v 0.002401 -0.256611 0.397444
v 0.002401 0.256611 0.397444
v 0.002401 0.256000 0.397500
v 0.002401 -0.256000 0.397500
v 0.002401 -0.258000 -0.395500
v 0.002401 -0.257944 -0.396111
v 0.002401 -0.257944 0.396111
v 0.002401 -0.258000 0.395500
v 0.002401 -0.257500 0.397000
v 0.002401 -0.257111 0.397278
v 0.002401 -0.257778 0.396611
v -0.002401 0.257778 0.396611
v -0.002401 0.257500 0.397000
v -0.001738 0.257757 0.397397
v -0.001738 0.258036 0.397008
v 0.002401 0.257500 0.397000
v 0.002401 0.257778 0.396611
v 0.001738 0.258036 0.397008
v 0.001738 0.257757 0.397397
v 0.002401 0.257778 -0.396611
v 0.002401 0.257500 -0.397000
v 0.001738 0.257757 -0.397397
v 0.001738 0.258036 -0.397008
v -0.002401 0.257500 -0.397000
v -0.002401 0.257778 -0.396611
v -0.001738 0.258036 -0.397008
v -0.001738 0.257757 -0.397397
v -0.002401 -0.257111 0.397278
v -0.002401 -0.257500 0.397000
v -0.001738 -0.257757 0.397397
v -0.001738 -0.257368 0.397675
v 0.002401 -0.257500 0.397000
v 0.002401 -0.257111 0.397278
v 0.001738 -0.257368 0.397675
v 0.001738 -0.257757 0.397397
v 0.002401 0.257111 0.397278
v 0.002401 0.257500 0.397000
v 0.001738 0.257757 0.397397
v 0.001738 0.257368 0.397675
v -0.002401 0.257500 0.397000
v -0.002401 0.257111 0.397278
v -0.001738 0.257368 0.397675
v -0.001738 0.257757 0.397397
v -0.002401 -0.257778 -0.396611
v -0.002401 -0.257500 -0.397000
v -0.001738 -0.257757 -0.397397
v -0.001738 -0.258036 -0.397008
v 0.002401 -0.257500 -0.397000
v 0.002401 -0.257778 -0.396611
v 0.001738 -0.258036 -0.397008
v 0.001738 -0.257757 -0.397397
v 0.002401 -0.257778 0.396611
v 0.002401 -0.257500 0.397000
v 0.001738 -0.257757 0.397397
v 0.001738 -0.258036 0.397008
v -0.002401 -0.257500 0.397000
v -0.002401 -0.257778 0.396611
v -0.001738 -0.258036 0.397008
v -0.001738 -0.257757 0.397397
v -0.002401 0.257111 -0.397278
v -0.002401 0.257500 -0.397000
v -0.001738 0.257757 -0.397397
v -0.001738 0.257368 -0.397675
v 0.002401 0.257500 -0.397000
v 0.002401 0.257111 -0.397278
v 0.001738 0.257368 -0.397675
v 0.001738 0.257757 -0.397397
v 0.002401 -0.257111 -0.397278
v 0.002401 -0.257500 -0.397000
v 0.001738 -0.257757 -0.397397
v 0.001738 -0.257368 -0.397675
v -0.002401 -0.257500 -0.397000
v -0.002401 -0.257111 -0.397278
v -0.001738 -0.257368 -0.397675
v -0.001738 -0.257757 -0.397397
v -0.001738 0.258036 0.397008
v -0.001738 0.257757 0.397397
v 0.001738 0.257757 0.397397
v 0.001738 0.258036 0.397008
v -0.002401 0.257944 0.396111
v -0.002401 0.257778 0.396611
v -0.001738 0.258202 0.396507
v -0.002401 0.258000 0.395500
v 0.001738 0.258202 0.396507
v 0.002401 0.257778 0.396611
v 0.002401 0.257944 0.396111
v -0.001738 0.258258 0.395895
v -0.002401 0.258000 -0.395500
v 0.001738 0.258258 0.395895
v 0.002401 0.258000 0.395500
v -0.001738 0.258258 -0.395895
v -0.002401 0.257944 -0.396111
v 0.001738 0.258258 -0.395895
v 0.002401 0.258000 -0.395500
v -0.001738 0.258202 -0.396507
v -0.002401 0.257778 -0.396611
v -0.001738 0.258036 -0.397008
v 0.001738 0.258202 -0.396507
v 0.002401 0.257944 -0.396111
v 0.001738 0.258036 -0.397008
v 0.002401 0.257778 -0.396611
v -0.001738 0.257757 -0.397397
v 0.001738 0.257757 -0.397397
v -0.001738 -0.257368 0.397675
v -0.001738 -0.257757 0.397397
v 0.001738 -0.257757 0.397397
v 0.001738 -0.257368 0.397675
v -0.002401 -0.256611 0.397444
v -0.002401 -0.257111 0.397278
v -0.001738 -0.256868 0.397842
v -0.002401 -0.256000 0.397500
v 0.001738 -0.256868 0.397842
v 0.002401 -0.257111 0.397278
v 0.002401 -0.256611 0.397444
v -0.001738 -0.256256 0.397897
v -0.002401 0.256000 0.397500
v 0.001738 -0.256256 0.397897
v 0.002401 -0.256000 0.397500
v -0.001738 0.256256 0.397897
v -0.002401 0.256611 0.397444
v 0.001738 0.256256 0.397897
v 0.002401 0.256000 0.397500
v -0.001738 0.256868 0.397842
v -0.002401 0.257111 0.397278
v -0.001738 0.257368 0.397675
v 0.001738 0.256868 0.397842
v 0.002401 0.256611 0.397444
v 0.001738 0.257368 0.397675
v 0.002401 0.257111 0.397278
v -0.001738 0.257757 0.397397
v 0.001738 0.257757 0.397397
v -0.001738 -0.258036 -0.397008
v -0.001738 -0.257757 -0.397397
v 0.001738 -0.257757 -0.397397
v 0.001738 -0.258036 -0.397008
v -0.002401 -0.257944 -0.396111
v -0.002401 -0.257778 -0.396611
v -0.001738 -0.258202 -0.396507
v -0.002401 -0.258000 -0.395500
v 0.001738 -0.258202 -0.396507
v 0.002401 -0.257778 -0.396611
v 0.002401 -0.257944 -0.396111
v -0.001738 -0.258258 -0.395895
v -0.002401 -0.258000 0.395500
v 0.001738 -0.258258 -0.395895
v 0.002401 -0.258000 -0.395500
v -0.001738 -0.258258 0.395895
v -0.002401 -0.257944 0.396111
v 0.001738 -0.258258 0.395895
v 0.002401 -0.258000 0.395500
v -0.001738 -0.258202 0.396507
v -0.002401 -0.257778 0.396611
v -0.001738 -0.258036 0.397008
v 0.001738 -0.258202 0.396507
v 0.002401 -0.257944 0.396111
v 0.001738 -0.258036 0.397008
v 0.002401 -0.257778 0.396611
v -0.001738 -0.257757 0.397397
v 0.001738 -0.257757 0.397397
v -0.001738 0.257368 -0.397675
v -0.001738 0.257757 -0.397397
v 0.001738 0.257757 -0.397397
v 0.001738 0.257368 -0.397675
v -0.002401 0.256611 -0.397444
v -0.002401 0.257111 -0.397278
v -0.001738 0.256868 -0.397842
v -0.002401 0.256000 -0.397500
v 0.001738 0.256868 -0.397842
v 0.002401 0.257111 -0.397278
v 0.002401 0.256611 -0.397444
v -0.001738 0.256256 -0.397897
v -0.002401 -0.256000 -0.397500
v 0.001738 0.256256 -0.397897
v 0.002401 0.256000 -0.397500
v -0.001738 -0.256256 -0.397897
v -0.002401 -0.256611 -0.397444
v 0.001738 -0.256256 -0.397897
v 0.002401 -0.256000 -0.397500
v -0.001738 -0.256868 -0.397842
v -0.002401 -0.257111 -0.397278
v -0.001738 -0.257368 -0.397675
v 0.001738 -0.256868 -0.397842
v 0.002401 -0.256611 -0.397444
v 0.001738 -0.257368 -0.397675
v 0.002401 -0.257111 -0.397278
v -0.001738 -0.257757 -0.397397
v 0.001738 -0.257757 -0.397397
vn 0.1976 0.9791 -0.0472
vn 0.2346 0.9487 -0.2120
vn -0.2348 0.9487 -0.2119
vn 0.2349 0.9486 0.2120
vn 0.1976 0.9791 0.0471
vn -0.1976 0.9791 0.0473
vn 0.2831 0.2048 -0.9370
vn 0.2991 0.4332 -0.8502
vn 0.5810 0.3608 -0.7296
vn 0.4416 0.8833 0.1572
vn 0.3767 0.9258 0.0307
vn -0.5217 0.0311 -0.8525
vn -0.5516 0.1572 -0.8192
vn -0.2830 0.2049 -0.9370
vn -0.2991 0.4332 -0.8502
vn -0.4416 -0.8833 0.1572
vn -0.3767 -0.9258 0.0307
vn -0.1976 -0.9791 0.0471
vn 0.2685 -0.8518 0.4499
vn 0.2348 -0.9486 0.2121
vn 0.4416 -0.8833 0.1572
vn 0.1976 -0.9791 0.0473
vn 0.1976 -0.9791 -0.0472
vn 0.3767 -0.9258 -0.0307
vn 0.3767 -0.9258 0.0309
vn 0.5207 -0.7730 0.3623
vn 0.2924 0.6722 -0.6802
vn -0.2347 -0.9487 0.2119
vn -0.2923 -0.6721 0.6803
vn -0.2685 -0.8517 0.4499
vn 0.2923 -0.6722 0.6802
vn -0.5810 0.3608 -0.7296
vn -0.5206 -0.7730 0.3625
vn 0.2991 -0.4332 -0.8502
vn 0.2924 -0.6723 -0.6801
vn -0.2924 -0.6722 -0.6802
vn -0.2991 -0.4331 -0.8503
vn 0.2830 -0.2050 -0.9370
vn 0.5515 -0.1571 -0.8193
vn -0.2924 0.6723 -0.6801
vn -0.2830 -0.2049 -0.9370
vn 0.2757 -0.0469 -0.9601
vn 0.5217 -0.0311 -0.8525
vn -0.5810 -0.3608 -0.7295
vn -0.5514 -0.1571 -0.8194
vn -0.2757 -0.0469 -0.9601
vn 0.5217 0.0311 -0.8525
vn 0.2757 0.0469 -0.9601
vn -0.5217 -0.0311 -0.8525
vn -0.2756 0.0469 -0.9601
vn 0.5516 0.1570 -0.8192
vn 0.5810 -0.3608 -0.7296
vn -0.5207 0.7729 0.3625
vn -0.5720 0.5879 0.5720
vn -0.2924 0.6721 0.6803
vn -0.2686 0.8517 0.4500
vn 0.5720 0.5879 0.5720
vn 0.5207 0.7730 0.3624
vn 0.2686 0.8517 0.4500
vn 0.2924 0.6720 0.6804
vn 0.5207 0.7730 -0.3625
vn 0.5720 0.5879 -0.5720
vn 0.2924 0.6721 -0.6803
vn -0.5720 0.5879 -0.5720
vn -0.5207 0.7730 -0.3625
vn -0.2688 0.8517 -0.4499
vn -0.2924 0.6720 -0.6803
vn -0.5810 -0.3610 0.7295
vn -0.5720 -0.5880 0.5720
vn -0.2924 -0.6722 0.6802
vn -0.2991 -0.4332 0.8502
vn 0.5720 -0.5880 0.5720
vn 0.5811 -0.3608 0.7295
vn 0.2990 -0.4332 0.8503
vn 0.2924 -0.6722 0.6802
vn 0.5810 0.3610 0.7295
vn 0.2924 0.6722 0.6802
vn 0.2991 0.4332 0.8502
vn -0.5720 0.5880 0.5719
vn -0.5811 0.3608 0.7295
vn -0.2992 0.4332 0.8502
vn -0.2924 0.6722 0.6802
vn -0.5207 -0.7729 -0.3625
vn -0.5720 -0.5879 -0.5720
vn -0.2924 -0.6721 -0.6803
vn -0.2686 -0.8517 -0.4500
vn 0.5720 -0.5879 -0.5720
vn 0.5207 -0.7730 -0.3624
vn 0.2686 -0.8517 -0.4500
vn 0.2924 -0.6720 -0.6803
vn 0.5207 -0.7730 0.3625
vn 0.5720 -0.5879 0.5720
vn 0.2924 -0.6721 0.6803
vn 0.2686 -0.8517 0.4500
vn -0.5720 -0.5879 0.5720
vn -0.5207 -0.7730 0.3625
vn -0.2686 -0.8517 0.4500
vn -0.2924 -0.6720 0.6804
vn -0.5810 0.3610 -0.7295
vn -0.5719 0.5879 -0.5721
vn -0.2924 0.6722 -0.6802
vn 0.5720 0.5880 -0.5719
vn 0.5811 0.3608 -0.7295
vn 0.2992 0.4332 -0.8502
vn 0.5810 -0.3610 -0.7295
vn 0.2924 -0.6722 -0.6802
vn -0.5720 -0.5880 -0.5719
vn -0.5811 -0.3608 -0.7295
vn -0.2992 -0.4332 -0.8502
vn -0.2685 0.8518 0.4499
vn -0.2923 0.6722 0.6802
vn 0.2923 0.6721 0.6803
vn 0.2686 0.8517 0.4499
vn -0.4416 0.8833 0.1573
vn -0.5207 0.7730 0.3624
vn -0.2350 0.9486 0.2121
vn -0.3767 0.9258 0.0308
vn 0.5206 0.7730 0.3625
vn -0.3767 0.9258 -0.0307
vn -0.1976 0.9791 -0.0473
vn -0.4417 0.8833 -0.1573
vn 0.3768 0.9258 -0.0307
vn -0.5206 0.7730 -0.3625
vn -0.2685 0.8517 -0.4499
vn 0.2686 0.8517 -0.4500
vn 0.4417 0.8833 -0.1573
vn 0.2685 0.8517 -0.4500
vn 0.5207 0.7730 -0.3623
vn -0.2923 0.6721 -0.6803
vn 0.2923 0.6722 -0.6802
vn -0.2924 -0.6723 0.6801
vn 0.2991 -0.4332 0.8502
vn -0.5514 -0.1570 0.8193
vn -0.5810 -0.3608 0.7296
vn -0.2830 -0.2050 0.9370
vn -0.5217 -0.0311 0.8525
vn 0.2830 -0.2049 0.9370
vn 0.5810 -0.3608 0.7296
vn 0.5517 -0.1570 0.8192
vn -0.2757 -0.0469 0.9601
vn -0.5214 0.0310 0.8527
vn 0.2757 -0.0469 0.9601
vn 0.5217 -0.0311 0.8525
vn -0.2757 0.0469 0.9601
vn -0.5511 0.1571 0.8195
vn 0.2757 0.0469 0.9601
vn 0.5217 0.0311 0.8525
vn -0.2830 0.2050 0.9370
vn -0.5810 0.3608 0.7296
vn -0.2991 0.4332 0.8502
vn 0.2830 0.2050 0.9370
vn 0.5518 0.1573 0.8190
vn 0.5810 0.3608 0.7296
vn 0.2924 0.6723 0.6801
vn -0.2685 -0.8518 -0.4499
vn -0.2923 -0.6722 -0.6802
vn 0.2923 -0.6721 -0.6803
vn 0.2686 -0.8517 -0.4499
vn -0.4416 -0.8833 -0.1572
vn -0.5207 -0.7730 -0.3624
vn -0.2346 -0.9487 -0.2120
vn -0.3767 -0.9258 -0.0308
vn 0.2349 -0.9486 -0.2120
vn 0.5206 -0.7730 -0.3625
vn 0.4417 -0.8833 -0.1573
vn -0.1976 -0.9791 -0.0472
vn 1.0000 -0.0000 -0.0000
vt 0.002500 0.666700
vt 0.001700 0.666700
vt 0.001700 0.333500
vt 0.998000 0.666700
vt 0.997100 0.666700
vt 0.997100 0.333500
vt 0.998500 0.666700
vt 0.998500 1.000000
vt 0.998000 1.000000
vt 0.997100 1.000000
vt 0.996100 0.000000
vt 0.997100 0.000000
vt 0.998500 0.333500
vt 0.001700 0.000000
vt 0.002500 0.000000
vt 0.002500 0.333500
vt 0.000800 0.666700
vt 0.001700 1.000000
vt 0.002500 1.000000
vt 0.000800 1.000000
vt 1.000000 0.666700
vt 0.000000 0.333500
vt 0.000800 0.333500
vt 0.000000 0.666700
vt 0.998500 0.000000
vt 0.000800 0.000000
vt 0.001300 0.666700
vt 0.001300 0.333500
vt 0.002600 0.666700
vt 0.002600 1.000000
vt 1.000000 0.333500
vt 0.002600 0.333500
vt 0.003900 0.666700
vt 0.003900 1.000000
vt 0.001300 0.000000
vt 0.002600 0.000000
vt 0.003900 0.333500
vt 0.996100 1.000000
vt 0.996100 0.666700
vt 0.003900 0.000000
vt 0.996100 0.333500
vt 0.001300 1.000000
vt 0.999000 0.000000
vt 1.000000 0.000000
vt 0.999000 0.333500
vt 1.000000 1.000000
vt 0.999000 1.000000
vt 0.999000 0.666700
vt 0.000000 1.000000
vt 0.000000 0.000000
vt 0.998000 0.000000
vt 0.998000 0.333500
vt 0.000000 0.996100
vt 0.000000 0.002900
vt 0.000000 0.000500
vt 0.000000 0.003900
vt 0.997100 0.000500
vt 0.001700 0.000500
vt 0.000000 0.998700
vt 0.000800 0.000500
vt 0.998000 0.000500
vt 0.999000 0.000500
vt 0.000000 0.997400
vt 0.999500 0.997400
vt 0.999500 1.000000
vt 0.999500 0.001500
vt 0.999500 0.002900
vt 0.999500 0.003900
vt 0.002500 0.000500
vt 0.000000 0.001500
vt 0.999500 0.000500
vt 0.999500 0.998700
vt 0.999500 0.996100
vt 1.000000 0.997400
vt 1.000000 0.998700
vt 1.000000 0.003900
vt 1.000000 0.996100
vt 1.000000 0.001500
vt 1.000000 0.002900
s 1
f 138/1/1 143/2/2 140/3/3
f 129/4/4 134/5/5 132/6/6
f 213/5/7 208/7/8 214/8/9
f 131/9/10 135/10/11 134/5/5
f 212/11/12 209/12/13 211/6/14
f 211/6/14 205/13/15 208/7/8
f 193/14/16 189/15/17 192/16/18
f 201/17/19 199/2/20 200/18/21
f 194/1/22 190/5/23 191/10/24
f 199/2/20 194/1/22 195/19/25
f 200/18/21 202/20/26 201/17/19
f 207/21/27 208/7/8 205/13/15
f 190/5/23 194/1/22 192/16/18
f 196/3/28 192/16/18 194/1/22
f 194/1/22 199/2/20 196/3/28
f 195/19/25 200/18/21 199/2/20
f 203/22/29 198/23/30 201/17/19
f 201/17/19 204/24/31 203/22/29
f 209/12/13 210/25/32 205/13/15
f 205/13/15 211/6/14 209/12/13
f 191/10/24 195/19/25 194/1/22
f 192/16/18 196/3/28 193/14/16
f 197/26/33 193/14/16 196/3/28
f 196/3/28 198/23/30 197/26/33
f 198/23/30 196/3/28 199/2/20
f 229/27/34 232/24/35 231/22/36
f 231/22/36 226/28/37 229/27/34
f 199/2/20 201/17/19 198/23/30
f 229/27/34 227/29/38 228/30/39
f 227/29/38 229/27/34 226/28/37
f 205/13/15 206/31/40 207/21/27
f 226/28/37 224/32/41 227/29/38
f 222/33/42 227/29/38 224/32/41
f 227/29/38 222/33/42 223/34/43
f 224/32/41 226/28/37 225/35/44
f 225/35/44 221/36/45 224/32/41
f 224/32/41 220/37/46 222/33/42
f 220/37/46 224/32/41 221/36/45
f 219/38/47 223/34/43 222/33/42
f 218/39/48 222/33/42 220/37/46
f 222/33/42 218/39/48 219/38/47
f 221/36/45 217/40/49 220/37/46
f 220/37/46 216/41/50 218/39/48
f 216/41/50 220/37/46 217/40/49
f 215/10/51 219/38/47 218/39/48
f 213/5/7 218/39/48 216/41/50
f 218/39/48 213/5/7 215/10/51
f 217/40/49 212/11/12 216/41/50
f 216/41/50 211/6/14 213/5/7
f 211/6/14 216/41/50 212/11/12
f 228/30/39 230/42/52 229/27/34
f 57/43/53 58/44/54 59/31/55
f 59/31/55 60/45/56 57/43/53
f 61/46/57 62/47/58 63/48/59
f 63/48/59 64/21/60 61/46/57
f 65/20/61 66/49/62 67/24/63
f 223/34/43 228/30/39 227/29/38
f 69/50/64 70/26/65 71/23/66
f 71/23/66 72/22/67 69/50/64
f 73/25/68 74/44/69 75/31/70
f 75/31/70 76/13/71 73/25/68
f 77/46/72 78/8/73 79/7/74
f 79/7/74 80/21/75 77/46/72
f 81/42/76 82/49/57 83/24/77
f 83/24/77 84/27/78 81/42/76
f 85/50/79 86/35/80 87/28/81
f 87/28/81 88/22/82 85/50/79
f 89/43/83 90/44/84 91/31/85
f 91/31/85 92/45/86 89/43/83
f 93/46/87 94/47/88 95/48/89
f 95/48/89 96/21/90 93/46/87
f 97/20/91 98/49/92 99/24/93
f 99/24/93 100/17/94 97/20/91
f 101/50/95 102/26/96 103/23/97
f 103/23/97 104/22/98 101/50/95
f 105/25/99 106/44/100 107/31/101
f 107/31/101 108/13/15 105/25/99
f 109/46/102 110/8/103 111/7/104
f 111/7/104 112/21/27 109/46/102
f 113/42/105 114/49/87 115/24/106
f 115/24/106 116/27/34 113/42/105
f 117/50/107 118/35/108 119/28/109
f 119/28/109 120/22/36 117/50/107
f 121/45/110 122/31/111 123/21/112
f 123/21/112 124/48/113 121/45/110
f 125/51/114 126/43/115 121/45/110
f 121/45/110 127/52/116 125/51/114
f 127/52/116 121/45/110 124/48/113
f 128/12/117 125/51/114 127/52/116
f 124/48/113 129/4/4 127/52/116
f 129/4/4 124/48/113 130/47/118
f 130/47/118 131/9/10 129/4/4
f 127/52/116 132/6/6 128/12/117
f 132/6/6 127/52/116 129/4/4
f 133/15/119 128/12/117 132/6/6
f 134/5/5 129/4/4 131/9/10
f 214/8/9 215/10/51 213/5/7
f 208/7/8 213/5/7 211/6/14
f 132/6/6 136/16/120 133/15/119
f 136/16/120 132/6/6 134/5/5
f 137/14/121 133/15/119 136/16/120
f 138/1/1 134/5/5 135/10/11
f 134/5/5 138/1/1 136/16/120
f 135/10/11 139/19/122 138/1/1
f 136/16/120 140/3/3 137/14/121
f 140/3/3 136/16/120 138/1/1
f 141/26/123 137/14/121 140/3/3
f 140/3/3 142/23/124 141/26/123
f 143/2/2 138/1/1 139/19/122
f 67/24/63 68/17/125 65/20/61
f 142/23/124 140/3/3 143/2/2
f 139/19/122 144/18/126 143/2/2
f 143/2/2 145/17/127 142/23/124
f 145/17/127 143/2/2 144/18/126
f 144/18/126 146/20/128 145/17/127
f 147/22/129 142/23/124 145/17/127
f 145/17/127 148/24/130 147/22/129
f 149/13/71 150/31/131 151/21/75
f 151/21/75 152/7/132 149/13/71
f 153/12/133 154/25/134 149/13/71
f 149/13/71 155/6/135 153/12/133
f 155/6/135 149/13/71 152/7/132
f 156/11/136 153/12/133 155/6/135
f 152/7/132 157/5/137 155/6/135
f 157/5/137 152/7/132 158/8/138
f 158/8/138 159/10/139 157/5/137
f 155/6/135 160/41/140 156/11/136
f 160/41/140 155/6/135 157/5/137
f 161/40/141 156/11/136 160/41/140
f 162/39/142 157/5/137 159/10/139
f 157/5/137 162/39/142 160/41/140
f 159/10/139 163/38/143 162/39/142
f 160/41/140 164/37/144 161/40/141
f 164/37/144 160/41/140 162/39/142
f 165/36/145 161/40/141 164/37/144
f 166/33/146 162/39/142 163/38/143
f 162/39/142 166/33/146 164/37/144
f 163/38/143 167/34/147 166/33/146
f 164/37/144 168/32/148 165/36/145
f 168/32/148 164/37/144 166/33/146
f 169/35/149 165/36/145 168/32/148
f 168/32/148 170/28/150 169/35/149
f 171/29/151 166/33/146 167/34/147
f 166/33/146 171/29/151 168/32/148
f 170/28/150 168/32/148 171/29/151
f 167/34/147 172/30/152 171/29/151
f 171/29/151 173/27/78 170/28/150
f 173/27/78 171/29/151 172/30/152
f 172/30/152 174/42/153 173/27/78
f 175/22/82 170/28/150 173/27/78
f 173/27/78 176/24/154 175/22/82
f 177/45/155 178/31/156 179/21/157
f 179/21/157 180/48/158 177/45/155
f 181/51/159 182/43/160 177/45/155
f 177/45/155 183/52/161 181/51/159
f 183/52/161 177/45/155 180/48/158
f 184/12/162 181/51/159 183/52/161
f 180/48/158 185/4/163 183/52/161
f 185/4/163 180/48/158 186/47/164
f 186/47/164 187/9/165 185/4/163
f 183/52/161 188/6/166 184/12/162
f 188/6/166 183/52/161 185/4/163
f 189/15/17 184/12/162 188/6/166
f 190/5/23 185/4/163 187/9/165
f 185/4/163 190/5/23 188/6/166
f 187/9/165 191/10/24 190/5/23
f 188/6/166 192/16/18 189/15/17
f 192/16/18 188/6/166 190/5/23
f 20/53/167 23/54/167 18/55/167
f 20/53/167 25/56/167 23/54/167
f 12/57/167 18/55/167 15/58/167
f 21/20/167 26/59/167 20/53/167
f 21/20/167 27/49/167 26/59/167
f 18/55/167 19/60/167 15/58/167
f 12/57/167 13/61/167 8/62/167
f 26/59/167 28/63/167 20/53/167
f 12/57/167 10/9/167 20/53/167
f 3/64/167 7/65/167 10/9/167
f 12/57/167 20/53/167 18/55/167
f 12/57/167 4/66/167 10/9/167
f 7/65/167 11/47/167 10/9/167
f 10/9/167 17/19/167 21/20/167
f 4/66/167 5/67/167 1/68/167
f 17/19/167 22/18/167 21/20/167
f 14/69/167 12/57/167 15/58/167
f 10/9/167 21/20/167 20/53/167
f 23/54/167 24/70/167 18/55/167
f 10/9/167 16/10/167 17/19/167
f 12/57/167 8/62/167 4/66/167
f 4/66/167 3/64/167 10/9/167
f 4/66/167 1/68/167 3/64/167
f 8/62/167 9/71/167 4/66/167
f 3/64/167 6/72/167 7/65/167
f 1/68/167 2/73/167 3/64/167
f 44/20/167 45/49/167 40/59/167
f 46/74/167 55/75/167 54/46/167
f 46/74/167 54/46/167 52/9/167
f 52/9/167 53/10/167 50/19/167
f 46/74/167 52/9/167 44/20/167
f 52/9/167 50/19/167 44/20/167
f 50/19/167 51/18/167 44/20/167
f 48/76/167 49/77/167 46/74/167
f 42/78/167 48/76/167 46/74/167
f 42/78/167 47/79/167 48/76/167
f 36/12/167 42/78/167 46/74/167
f 46/74/167 44/20/167 33/53/167
f 36/12/167 46/74/167 33/53/167
f 54/46/167 56/47/167 52/9/167
f 44/20/167 40/59/167 33/53/167
f 39/43/167 43/44/167 42/78/167
f 36/12/167 39/43/167 42/78/167
f 40/59/167 41/63/167 33/53/167
f 36/12/167 38/51/167 39/43/167
f 31/50/167 36/12/167 33/53/167
f 35/14/167 37/15/167 36/12/167
f 31/50/167 35/14/167 36/12/167
f 31/50/167 34/26/167 35/14/167
f 29/54/167 31/50/167 33/53/167
f 32/56/167 29/54/167 33/53/167
f 29/54/167 30/70/167 31/50/167
